<?xml version="1.0" encoding="UTF-8" standalone="no"?>
<svg
   xmlns:dc="http://purl.org/dc/elements/1.1/"
   xmlns:cc="http://creativecommons.org/ns#"
   xmlns:rdf="http://www.w3.org/1999/02/22-rdf-syntax-ns#"
   xmlns:svg="http://www.w3.org/2000/svg"
   xmlns="http://www.w3.org/2000/svg"
   id="svg8"
   version="1.1"
   viewBox="0 0 60.419739 82.018959"
   height="82.018959mm"
   width="60.419739mm">
  <defs
     id="defs2" />
  <metadata
     id="metadata5">
    <rdf:RDF>
      <cc:Work
         rdf:about="">
        <dc:format>image/svg+xml</dc:format>
        <dc:type
           rdf:resource="http://purl.org/dc/dcmitype/StillImage" />
        <dc:title></dc:title>
      </cc:Work>
    </rdf:RDF>
  </metadata>
  <g
     transform="translate(-49.39352,-105.44457)"
     id="layer1">
    <path
       id="path935"
       d="m 56.297127,169.23304 c -0.788483,-0.87044 -1.519464,-1.79296 -2.186598,-2.75956 -1.18911,-1.72287 -2.174241,-3.58513 -2.946647,-5.53081 -0.791245,-1.99313 -1.360664,-4.07953 -1.613639,-6.209 -0.182397,-1.53537 -0.199978,-3.0888 -0.08185,-4.63045 0.133155,-1.73776 0.438483,-3.46123 0.888671,-5.14493 0.385504,-1.44179 0.877911,-2.85678 1.508403,-4.2095 0.656365,-1.40823 1.460657,-2.7452 2.361994,-4.01071 0.574829,-0.80708 1.189593,-1.586 1.847501,-2.32692 4.092648,-4.60906 9.893761,-7.66004 16.007775,-8.44237 1.224607,-0.1567 2.460704,-0.22574 3.695001,-0.19879 1.619806,0.0354 3.235259,0.23619 4.817533,0.58466 2.229257,0.49095 4.388845,1.27374 6.454558,2.24506 0.78918,0.37108 1.565841,0.77007 2.315224,1.21608 4.218742,2.51089 7.472219,6.48935 9.483055,10.96807 0.921176,2.05173 1.595932,4.21486 1.991212,6.42888 0.59039,3.30686 0.55171,6.7302 -0.1671,10.01154 -0.722924,3.30013 -2.130867,6.44301 -4.066228,9.2121 -3.226994,4.61715 -7.956993,8.1817 -13.311849,9.93014 -3.597701,1.1747 -7.457423,1.5365 -11.211719,1.05833 -6.003819,-0.76468 -11.703879,-3.72275 -15.785295,-8.19182 z"
       style="fill:#0096ff;fill-opacity:1;stroke:none;stroke-width:0.26458332px;stroke-linecap:butt;stroke-linejoin:miter;stroke-opacity:1" />
    <path
       id="path915"
       d="m 56.714885,105.44579 c -0.226422,27.2377 0,82.01774 0,82.01774 H 71.904657 V 169.6306 l 5.518832,-5.51883 14.946673,23.35072 H 109.81326 L 86.915358,153.67545 107.86732,129.8412 H 89.803539 l -18.024824,21.52487 v -45.9215 z"
       style="fill:#111827;fill-opacity:1;stroke:none;stroke-width:0.26458332px;stroke-linecap:butt;stroke-linejoin:miter;stroke-opacity:1" />
  </g>
</svg>
